<svg xmlns="http://www.w3.org/2000/svg" viewBox="0 0 512 512"><!--!Font Awesome Free 6.5.2 by @fontawesome - https://fontawesome.com License - https://fontawesome.com/license/free Copyright 2024 Fonticons, Inc.--><path fill="#757b88" d="M260.4 254.9 131.5 33.1a2.2 2.2 0 0 0 -3.8 0L.3 254.9A2.2 2.2 0 0 0 .3 257.1L129.1 478.9a2.2 2.2 0 0 0 3.8 0L260.4 257.1A2.2 2.2 0 0 0 260.4 254.9zm39.1-25.7a2.2 2.2 0 0 0 1.9 1.1h66.5a2.2 2.2 0 0 0 1.9-3.3L259.1 33.1a2.2 2.2 0 0 0 -1.9-1.1H190.7a2.2 2.2 0 0 0 -1.9 3.3zM511.7 254.9 384.9 33.1A2.2 2.2 0 0 0 383 32h-66.6a2.2 2.2 0 0 0 -1.9 3.3L440.7 256 314.5 476.7a2.2 2.2 0 0 0 1.9 3.3h66.6a2.2 2.2 0 0 0 1.9-1.1L511.7 257.1A2.2 2.2 0 0 0 511.7 254.9zM366 284.9H299.5a2.2 2.2 0 0 0 -1.9 1.1l-108.8 190.6a2.2 2.2 0 0 0 1.9 3.3h66.5a2.2 2.2 0 0 0 1.9-1.1l108.8-190.6A2.2 2.2 0 0 0 366 284.9z"/></svg>